<?xml version="1.0" encoding="UTF-8"?>
<svg id="Layer_2" data-name="Layer 2" xmlns="http://www.w3.org/2000/svg" viewBox="0 0 510.73 499.74">
  <g id="Layer_3" data-name="Layer 3">
    <path class="cls-1" style="fill:#6962cf;" d="M60.08,71.65c.35,.56,.74,1.12,1.3,1.45,.56,.33,1.23,.41,1.88,.47,2.62,.24,5.25,.33,7.88,.41,5.01,.15,10.03,.25,15.04,.3,5.62,.06,11.24,.08,16.86,.07,2.81,0,5.63-.05,8.44-.04,1.28,0,2.56-.02,3.84-.03,1.2-.02,2.85-.34,4-.05-.91-.23-1.8-.57-2.63-1-2.23-1.15-4.05-2.92-5.38-5.05-4.34-6.97-4.05-17.18-1.04-24.56,3.3-8.09,10.68-14.68,19.63-15.32,1.09-.08,2.17,0,3.27,0,.5,0,1.98-.33,2.38,.08-2.76-2.82-6.87-3.81-10.81-3.82-11.93-.04-23.83,4.21-33.05,11.8-.73,.6-1.46,1.24-1.93,2.06-.49,.84-.68,1.82-1.01,2.73-1.16,3.12-3.96,5.29-6.62,7.29-1.15,.86-2.34,1.74-3.74,2.05-1.54,.34-3.13-.05-4.68-.34-5.82-1.09-12.29-.63-16.99,2.99-.72,.55-1.41,1.21-1.75,2.05-.51,1.27-.14,2.7,.24,4.01,1.23,4.3,2.49,8.67,4.87,12.46Z"/>
    <path class="cls-1" style="fill:#6962cf;" d="M407.63,82.43c2.73,.81,5.08,2.37,6.92,4.39,3.2,3.52,4.85,8.46,4.25,13.34-.43,3.5-2.24,6.7-5.43,8.35-2.35,1.21-5.08,1.54-7.71,1.33,10.46,1.58,21.06,.07,31.57,.52,3.1,.13,6.28,.42,9.23-.55,3.32-1.1,5.99-3.76,7.62-6.86,1.63-3.1,2.32-6.61,2.59-10.11,.15-2.04,.17-4.12-.4-6.08-.3-1.04-.77-2.05-1.52-2.83-1.17-1.21-2.89-1.72-4.56-1.86-6.41-.55-12.34,3.6-18.76,4.08-.17-3.3-.72-6.58-1.64-9.75-.68-2.36-1.64-4.77-3.54-6.32-2.69-2.2-6.69-2.12-9.86-.72-3.18,1.4-5.72,3.89-8.18,6.34-1.09,1.08-2.17,2.16-3.26,3.23-.73,.72-2.68,2.07-2.88,3.04,.17-.78,4.98,.29,5.57,.47Z"/>
    <path class="cls-1" style="fill:#6962cf;" d="M411.98,394.61c-14.74-11.41-29.81-22.38-45.19-32.9-7.69-5.26-15.46-10.41-23.3-15.44-7.05-4.52-13.16-9.34-21.7-10.56-8.74-1.25-17.83,.49-25.86,4.04-12.5,5.53-22.82,14.89-33.15,23.84-21.07,18.25-44.33,35.95-71.77,40.88-10.67,1.92-21.62,1.81-32.39,.67-9.68-1.03-19.57-3.01-27.66-8.42-8.25-5.52-14.09-14.51-15.78-24.29-9.92,1.04-16.27,12.38-14.92,22.26,1.34,9.88,8.3,18.09,15.95,24.48,20.43,17.06,48.1,25.15,74.5,21.76,3.88-.5,7.75-1.23,11.67-1.27,5.26-.05,10.43,1.15,15.58,2.18,28.42,5.67,57.87,6.19,86.47,1.5,25.77-4.22,51.06-12.63,77.17-12.74,9.8-.04,20.8,.7,28.07-5.87,5.61-5.07,7.29-13.23,7.27-20.79,0-1.62-.08-3.29-.74-4.77-.85-1.92-2.57-3.29-4.23-4.57Z"/>
    <path class="cls-1" style="fill:#6962cf;" d="M83.43,418.83c-4.09-.18-8.15-.93-12.08-2.1-3.98-1.19-7.97-2.93-10.65-6.1-1.74-2.06-2.81-4.61-3.61-7.19-.76-2.45-1.3-4.97-1.61-7.52-.14-1.13-.23-2.26-.28-3.4-.03-.81,.28-2.38-.08-3.1-.81-1.59-3.34,.63-4.16,1.22-3.16,2.27-5.88,5.15-7.94,8.45-1.91,3.06-3.28,6.56-3.28,10.17,0,1.65,.28,3.29,.59,4.91,.22,1.14,.45,2.29,1.02,3.3,.93,1.67,2.64,2.73,4.05,4.03,1.46,1.35,2.64,3,4.22,4.21,1.82,1.39,4.05,2.11,6.26,2.7,4.81,1.29,9.75,2.1,14.73,2.4,6.93,.43,13.98-.13,20.59-2.29,2.86-.93,5.62-2.16,8.37-3.38,3.25-1.44,6.5-2.89,9.75-4.33-7.88-3.76-17.16-1.63-25.88-2Z"/>
    <path class="cls-1" style="fill:#6962cf;" d="M481.11,402.82c-.46-1.9-1.12-3.8-2.33-5.35-1.04-1.33-2.43-2.33-3.8-3.31-2.81-2.01-5.62-4.02-8.43-6.03-1.05-.75-2.09-1.5-3.17-2.2-.73-.47-1.56-1.14-2.45-1.25-1.87-.22-3.83,1.27-4.76,2.76-.99,1.6-1.31,3.53-1.49,5.41-.17,1.88-.22,3.79-.73,5.6-1.3,4.58-5.42,7.84-9.76,9.79-4.05,1.81-8.64,2.75-12.95,1.71,1.83,1.46,3.66,2.93,5.49,4.39,1.57,1.25,3.14,2.51,4.86,3.55,1.88,1.13,3.91,1.99,5.93,2.84,3.22,1.36,6.49,2.72,9.96,3.18,2.7,.35,5.43,.14,8.14-.08,2.73-.22,5.46-.43,8.19-.65,1.63-.13,3.35-.29,4.71-1.2,1.92-1.29,2.66-3.73,3.03-6.01,.71-4.35,.59-8.85-.45-13.14Z"/>
    <path class="cls-1" style="fill:#6962cf;" d="M255.79,193.94c36.1,0,65.48-29.38,65.48-65.49,0-17.39-6.83-33.21-17.93-44.95,8.4,9.89,11.28,20.96,6.25,26.53-5.91,6.57-20.52,3.05-32.63-7.86s-17.12-25.07-11.21-31.63c3.47-3.85,9.94-4.23,17.14-1.68-8.27-3.77-17.44-5.9-27.1-5.9-36.11,0-65.49,29.37-65.49,65.48s29.38,65.49,65.49,65.49Z"/>
    <path class="cls-1" style="fill:#6962cf;" d="M444.67,197.79l-4,2-4,4s22-10,31,1l1.16-5.16-4.16-2.84-7-3-7,1-6,3Z"/>
    <path class="cls-1" style="fill:#6962cf;" d="M400.67,217.79l-8-2-6-1-9,2-5,4-3,7.14v17.86l4,23c-3-56,27-51,27-51Z"/>
    <path class="cls-1" style="fill:#6962cf;" d="M70.67,203.79l-4-4-4-2-6-3-7-1-7,3-4.16,2.84,1.16,5.16c9-11,31-1,31-1Z"/>
    <path class="cls-1" style="fill:#6962cf;" d="M129.67,216.79l-9-2-6,1-8,2s30-5,27,51l4-23v-17.86l-3-7.14-5-4Z"/>
    <path class="cls-1" style="fill:#6962cf;" d="M127.67,289.79s33.31,39.03,56,41c0,0-23-16-28-20.5s-26-26.5-26-26.5l-2,6Z"/>
    <path class="cls-1" style="fill:#6962cf;" d="M379.67,290.79l-3-7s-8,8-17,18-36,29-36,29l1,2c24-9,55-42,55-42Z"/>
    <path class="cls-1" style="fill:#6962cf;" d="M454.67,219.79l-2.62,10.16-2.97,6.44-8.18,5.4-12.23,8-10.95,5.66-13.05,3.34,.74,4.22c65.74-20.78,53.95-49.7,53.95-49.7l-4.69,3.48v3Z"/>
    <path class="cls-1" style="fill:#6962cf;" d="M47.98,213.31s-11.79,28.91,53.95,49.7l.74-4.22-13.05-3.34-10.95-5.66-12.23-8-8.18-5.4-2.97-6.44-2.62-10.16v-3l-4.69-3.48Z"/>
    <g>
      <path d="M507.71,413.73c-.11-.33-.31-.62-.62-.82l-1.67-1.07-50.96-32.56s-.05-.03-.08-.05l-12.07-7.71c-2.16-1.38-4.66-1.95-7.1-1.73-2.4,.2-4.73,1.16-6.61,2.83l-19.57,17.55-22.65-15.77c13.38-11.74,27.69-24.19,27.86-24.34,4.4-3.98,8.85-7.94,13.3-11.9,19.8-17.65,40.27-35.89,57.72-56.54l.47-.56c7.03-8.32,14.3-16.92,18.56-27.14,1.03-2.46,3.16-8.36,3.16-14.83,0-.59-.01-1.18-.05-1.77-.25-4.28-1.54-8.69-4.76-12.44-1.37-1.59-2.86-2.45-4.43-2.57-.79-.06-1.58,.07-2.38,.38,0-.23,0-.47,.01-.68,0-4.37-.57-9.56-2.6-14.15-1.38-3.14-3.45-5.99-6.49-8.1-.9-9.01-8.07-16.69-13.49-16.69-.06,0-.11,.01-.17,.01-1.61,.04-5.36,.91-5.36,7.87,0,1.77-.07,3.56-.18,5.37-3.8-3.76-8.65-4.87-11.32-4.87-5.91,0-19.7,8.94-23.94,12.33-1.06,.86-2.2,2.04-3.26,3.37l-.47,.61c-1.33,1.77-5.52,7.92-3.76,12.66,.53,1.42,1.84,3.27,5.1,4,.84,.18,1.77,.28,2.79,.28,1.75,0,3.76-.27,6.01-.82l1.15-.29h0c4.72-1.3,9.66-3.46,13.53-5.36,.6,9.66-6.22,17.6-15.15,23.79-11.02,7.64-25.26,12.62-32.8,14.91-1.31-6.76-2.84-11.66-4.15-15.05,2.97,.51,5.79,.47,8.38,.06,.33-.05,.66-.11,.98-.18,6.47-1.31,11.4-4.95,13.51-8.15,1.91-2.88,1.24-4.91-.02-5.86-3.18-2.38-16.91-8.59-24.8-12.07-3.51-1.55-7.05-2.53-10.54-2.92-6.56-.73-11.94,.59-15.54,3.82-3.66,3.28-5.52,8.45-5.52,15.37,0,18.17,4.89,39.41,7.85,50.61-7.4,9.32-26.45,31.22-53.23,47.27l-58.94-41.02c-1.47-1.02-3.11-1.65-4.81-1.88-2.5-.37-5.11,.13-7.36,1.49l-56.97,34.38s-.05,.03-.08,.05l-10.32,6.23c-26.22-16.04-44.78-37.43-52-46.53,.65-2.45,1.39-5.39,2.15-8.67,2.73-11.69,5.71-27.74,5.71-41.93,0-6.92-1.86-12.09-5.53-15.37-3.6-3.23-8.97-4.55-15.53-3.82-3.49,.39-7.04,1.37-10.54,2.92-7.9,3.48-21.63,9.69-24.8,12.07-1.26,.95-1.93,2.98-.03,5.86,3.05,4.61,11.96,10.15,22.87,8.27-1.31,3.39-2.84,8.29-4.15,15.05-7.54-2.29-21.78-7.27-32.8-14.91-8.93-6.19-15.75-14.13-15.15-23.79,3.88,1.9,8.82,4.06,13.54,5.35l1.14,.3c2.25,.55,4.26,.82,6.01,.82,.22,0,.44,0,.66-.02,.76-.03,1.47-.12,2.13-.26,3.26-.73,4.57-2.58,5.1-4,1.76-4.74-2.43-10.89-3.75-12.66l-.46-.61h-.01c-1.06-1.33-2.2-2.51-3.27-3.37-4.24-3.39-18.03-12.33-23.93-12.33-2.68,0-7.53,1.11-11.32,4.87-.12-1.81-.18-3.61-.18-5.37,0-6.96-3.75-7.83-5.37-7.87-.05,0-.11-.01-.16-.01-.31,0-.62,.03-.94,.08-5.28,.8-11.71,8.11-12.55,16.61-4.38,3.04-6.75,7.61-7.95,12.36-.09,.32-.16,.63-.23,.95-.69,3.07-.91,6.17-.91,8.94v.68c-.79-.31-1.58-.44-2.37-.38-1.57,.12-3.06,.98-4.43,2.57-8.6,10.01-3.44,24.75-1.65,29.04,4.26,10.22,11.53,18.82,18.56,27.14l.47,.56c5.33,6.3,10.93,12.38,16.73,18.28,13.15,13.45,27.24,26,41,38.26,4.45,3.96,8.89,7.92,13.32,11.92,0,0,11,9.57,22.82,19.92l-32.27,19.47-8.4-6.28c-4.77-3.58-11.46-3.6-16.25-.06l-37.96,27.98c-.1,.02-.21,.04-.31,.06-4.8,1.05-13.29,3.78-16.28,10.26-1.73,3.75-1.33,8.06,1.21,12.8,4.72,8.82,15.17,16.47,31.94,23.37,30.97,12.74,63.57,7.63,95.09,2.68,19.11-3,38.87-6.1,57.96-5.13,6.82,.34,20.49,2.98,22.68,7.82,.24,.51,.94,2.06-1.26,4.84-.74,.94-1.98,1.7-3.18,2.45-2.21,1.36-4.71,2.91-4.85,5.96-.43,9.04,10.84,9.98,15.65,10.37,20.66,1.73,41.47,2.34,61.96,2.34,18.2,0,36.15-.48,53.52-1.08,5.89-.21,16.83-.6,17.9-9.56,.21-1.8-.3-3.41-.8-4.96-.33-1.05-.65-2.04-.7-3-.49-8.11,9.35-10.74,19.46-12.73,.65-.13,1.27-.25,1.85-.37,10.17-2.1,20.75-2.81,30.99-3.51l3-.2c21.03-1.46,42.27-3.57,63.12-6.28,1.13-.15,2.32-.29,3.56-.44,12.93-1.55,30.64-3.68,35.93-17.31,1.05-2.72,1.1-6.76,1.1-7.54,0-3.2-.97-5.84-3.02-8.22Zm-77.11-38.87c1.37-1.23,3.08-1.94,4.84-2.1,1.8-.16,3.65,.26,5.25,1.28l10.67,6.82c-1.07,1.1-2.22,2.01-3.53,2.2-.62,.09-1.32,.02-2.06-.04-.68-.06-1.38-.13-2.12-.09-1.44,.08-2.73,.53-3.99,.97-1.24,.43-2.42,.83-3.55,.79-.68-.03-1.44-.22-2.24-.41-1.86-.46-3.96-.98-5.84,.36-.4,.28-.72,.61-1,.89-.25,.26-.54,.55-.71,.6-.14,.04-.47-.02-1.27-.51-1.26-.77-2.48-1.61-3.68-2.48l9.23-8.28Zm6.72-153.74c-2.8,.62-5.08,.75-6.77,.37-1.58-.35-2.54-1.04-2.94-2.12-.75-2.02,.42-5.65,2.91-9.2,2.62,.09,6.48,.64,7.88,2.97,1.28,2.13,.2,5.41-1.08,7.98Zm-30.76,1.09c8.44,3.86,14.15,6.73,15.77,7.94,.11,.25-.22,1.8-2.55,3.92-1.8,1.63-3.72,2.81-5.68,3.62-4.53-2.29-7.34-5.01-8.3-8.11-.85-2.7-.17-5.34,.76-7.37Zm-30.01,63.93c.74,2.64,1.22,4.19,1.24,4.26,.21,.64,.8,1.05,1.44,1.05,.14,0,.3-.02,.44-.07,.79-.24,1.24-1.08,.99-1.87-.1-.32-9.93-32.08-9.93-57.56,0-6.03,1.52-10.45,4.52-13.14,3.73-3.33,9.24-3.51,13.2-3.07,3.19,.36,6.44,1.26,9.67,2.68,2,.89,3.9,1.73,5.7,2.55-1.16,2.55-2,5.93-.89,9.5,1,3.21,3.42,6.01,7.17,8.39-.31,.06-.62,.11-.92,.15-6.38,.86-12.58-1.26-16.2-3.36-.72-.41-1.64-.17-2.05,.55-.12,.2-.18,.42-.19,.63l-.07-.04s.03,.04,.06,.11c-.02,.53,.25,1.07,.74,1.35,.04,.03,.09,.05,.13,.07,2.04,3.32,6.96,11.15,9.83,14.32,.47,1.94,.93,4.09,1.36,6.47,.33,1.86,.65,3.89,.95,6.05,.1,.75,.75,1.29,1.48,1.29,.07,0,.14,0,.21-.01,.82-.11,1.4-.87,1.28-1.69-.23-1.7-.48-3.32-.74-4.85,7.72-2.33,22.72-7.55,34.36-15.78,9.84-6.95,17.29-16.04,15.93-27.36,1.57-.82,2.52-1.37,2.56-1.4,.72-.42,.96-1.34,.54-2.05-.41-.72-1.33-.96-2.05-.54-.01,0-1.31,.76-3.37,1.82-2.85,1.47-7.92,3.9-12.92,5.5,1.27-3.44,1.27-6.3-.05-8.5-1.38-2.31-4.18-3.74-8.13-4.23,.45-.47,.9-.89,1.32-1.24,5.13-4.1,17.68-11.67,22.07-11.67,2.42,0,7.74,1.31,10.94,6.14-2.39,21.95-12.15,39.45-12.25,39.63-.41,.72-.15,1.63,.57,2.04,.23,.13,.49,.19,.74,.19,.52,0,1.03-.27,1.3-.76,.28-.5,4.89-8.75,8.58-21.09,12.2-19.12,8.92-30.79,7.25-34.51,3.3,.11,8.67,5.43,10.12,12.12-1.18-.21-2.13,0-2.82,.3-2.9,1.25-4.1,5.12-4.55,7.31-.56,2.68-.81,5.42-1.06,8.07-.25,2.69-.52,5.47-1.09,8.12-2.49,11.49-7.31,22.22-13.93,31.04-.5,.66-.37,1.61,.3,2.1,.66,.5,1.6,.37,2.1-.3,3.77-5.02,6.95-10.65,9.5-16.66,14.86-21.78,12.96-33.1,11.49-36.9,.28,.1,.6,.25,.96,.47,2.84,1.75,4.77,4.3,6.06,7.15,1.89,4.17,2.4,9.02,2.4,13.09-.02,9.1-1.44,31.38-14.37,41.78-.65,.52-.75,1.47-.23,2.11,.3,.37,.73,.56,1.17,.56,.33,0,.66-.11,.94-.33,5.58-4.49,9.16-10.92,11.46-17.63,9.01-13.11,8.24-20,6.99-22.93,.51,.25,1.03,.66,1.56,1.28,2.71,3.16,3.82,6.93,4.06,10.64,.03,.53,.05,1.06,.05,1.58,0,5.92-1.99,11.43-2.94,13.7-4.09,9.8-11.21,18.22-18.09,26.36l-.48,.56c-17.13,20.29-37.3,38.31-56.85,55.73-29.96,18.25-58.39,19.61-67.74,19.5l-33.33-23.2c25.08-15.31,43.3-35.5,51.51-45.57Zm-123.75,4.84c1.66-1,3.59-1.36,5.44-1.08,1.21,.19,2.4,.64,3.45,1.37l43.76,30.46c-.68,.32-1.36,.62-2.06,.9-.77,.31-1.54,.6-2.32,.88-10.31,3.63-20.44,3.81-28.75,.48-1.35-.54-2.71-1.2-4.02-1.83-1.93-.93-3.92-1.9-6.04-2.58-9.4-3.01-18.95-.05-28.18,2.82-5.05,1.56-10.26,3.18-15.37,3.79-5.74,.68-11.87,.15-18.21-1.6-.78-.21-1.51-.45-2.22-.7l54.52-32.91Zm-165.13-56.91c-2.33-2.12-2.66-3.67-2.54-3.92,1.62-1.21,7.32-4.07,15.77-7.94,.92,2.03,1.6,4.67,.76,7.37-.96,3.07-3.72,5.77-8.17,8.04-2.47-1-4.46-2.32-5.82-3.55Zm-10.74-23.9c2.49,3.55,3.66,7.18,2.91,9.2-.4,1.08-1.36,1.77-2.94,2.12-.47,.1-1,.17-1.56,.2-1.42,.06-3.12-.12-5.09-.54l-.12-.03c-.92-1.86-1.74-4.09-1.64-5.99,.04-.73,.21-1.4,.56-1.99,1.4-2.33,5.26-2.88,7.88-2.97Zm3.53,124.44c-13.25-11.8-26.76-23.9-39.39-36.79-5.74-5.87-11.3-11.9-16.57-18.14l-.48-.56c-6.88-8.14-14-16.56-18.09-26.36-1.61-3.88-6.31-17.22,1.17-25.92,.48-.56,.94-.95,1.4-1.21-1.24,3.01-1.92,9.99,7.27,23.21,2.3,6.59,5.85,12.87,11.33,17.28,.28,.22,.61,.33,.94,.33,.44,0,.88-.19,1.17-.56,.52-.64,.42-1.59-.23-2.11-12.93-10.4-14.35-32.68-14.36-41.78,0-2.58,.2-5.48,.83-8.32,.06-.29,.13-.59,.21-.88,1.12-4.37,3.32-8.52,7.42-11.04,.3-.19,.57-.31,.82-.41-1.48,3.88-3.3,15.33,11.81,37.28,2.52,5.85,5.64,11.32,9.32,16.22,.5,.67,1.44,.8,2.1,.3,.66-.49,.79-1.44,.3-2.1-6.63-8.82-11.44-19.55-13.94-31.04-.57-2.65-.83-5.43-1.08-8.12-.25-2.65-.51-5.39-1.07-8.07-.45-2.19-1.65-6.06-4.55-7.31-.68-.3-1.64-.51-2.81-.29,1.39-6.41,6.36-11.59,9.68-12.1,.11,0,.22-.02,.32-.03-1.68,3.73-4.98,15.51,7.45,34.82,3.68,12.17,8.21,20.28,8.49,20.78,.28,.49,.79,.76,1.31,.76,.25,0,.5-.06,.73-.19,.73-.41,.98-1.32,.57-2.05-.1-.17-9.85-17.64-12.25-39.62,3.2-4.83,8.52-6.14,10.95-6.14,4.39,0,16.94,7.57,22.06,11.67,.43,.35,.88,.77,1.33,1.24-3.95,.49-6.75,1.92-8.14,4.23-.61,1.01-.93,2.15-.98,3.43-.07,1.51,.24,3.2,.93,5.07-5-1.6-10.06-4.03-12.92-5.5-2.05-1.06-3.35-1.82-3.37-1.82-.72-.42-1.63-.18-2.05,.54-.3,.5-.25,1.11,.05,1.57,.19,2.07,1.16,9.39,5.4,14.69,2.83,5.61,7.78,10.45,13.58,14.55,.15,.11,.31,.22,.46,.31,11.57,8.06,26.28,13.17,33.9,15.47-.26,1.51-.5,3.14-.74,4.85-.11,.82,.46,1.58,1.28,1.69,.07,.01,.14,.01,.21,.01,.74,0,1.38-.54,1.48-1.29,.3-2.18,.62-4.22,.95-6.05,.44-2.45,.92-4.65,1.4-6.64,2.87-3.24,7.59-10.75,9.62-14.06,.1-.05,.2-.1,.3-.16,.72-.41,.96-1.33,.54-2.05-.41-.72-1.33-.96-2.05-.55-6.34,3.68-12.23,4.12-17.02,3.15,3.69-2.36,6.08-5.15,7.07-8.32,1.11-3.58,.28-6.96-.89-9.51,1.81-.82,3.7-1.66,5.71-2.55,3.22-1.42,6.47-2.32,9.66-2.68,3.96-.44,9.48-.26,13.2,3.07,3.01,2.69,4.53,7.11,4.53,13.14,0,13.93-2.94,29.74-5.62,41.26-2.23,9.55-4.27,16.16-4.32,16.3-.24,.79,.2,1.63,.99,1.87,.15,.05,.3,.07,.45,.07,.64,0,1.23-.41,1.43-1.05,.02-.07,.5-1.62,1.24-4.27,8,9.82,25.67,29.45,50.08,44.69l-34.88,21.05c-6.84,.25-35.06,.05-65.64-17.26Zm-19.53,50.94c3.64-2.69,8.65-2.74,12.35-.18-.02,.01-.03,.01-.05,.02-.5,.19-1,.39-1.5,.57-4.06,1.49-8.6,1.91-13.07,1.26l2.27-1.67Zm44.3,33.21c-2.26,.36-4.42,1.06-6.5,1.73-1.75,.56-3.41,1.09-5.11,1.44-4.4,.91-9.07,.59-13.59,.28l-19.44-1.33c-15.05-5.77-16.02-17.77-15.49-23.66l10.27-7.57c2.41,.57,4.86,.88,7.3,.88,3.48,0,6.92-.59,10.09-1.75,.52-.19,1.04-.39,1.57-.6,.6-.24,1.21-.47,1.82-.68l6.62,4.95,33.23,26.62c-3.55-.61-7.15-.9-10.77-.31Zm299.03,2.89c-5.93,.2-11.89,.66-17.71,1.97-2.12,.48-4.23,1.07-6.27,1.65-3.29,.92-6.7,1.88-10.09,2.33-8.51,1.13-16.83-.78-25.64-2.81-4.82-1.11-9.81-2.25-14.8-2.84-15.91-1.87-32.09,1.88-47.73,5.51-20.12,4.66-39.12,9.06-57.47,2.5-1.29-.46-3.47-1.45-3.55-2.91-.03-.38,.09-.84,.21-1.34,.15-.61,.32-1.3,.3-2.06-.08-2.63-2.23-4.75-6.05-5.98-15.18-4.84-31.15-1.72-46.59,1.29-13.04,2.55-26.52,5.19-39.41,2.98-2.22-.38-4.51-.91-6.72-1.43-.12-.03-.23-.06-.35-.09-.08-.11-.17-.21-.28-.3l-10.33-8.28c-9.71-16.19-4.88-29.18-1.88-34.61l74.68-45.07,.02-.02,10.48-6.32c1.41,.65,2.96,1.21,4.62,1.67,4.82,1.32,9.54,1.99,14.08,1.99,1.79,0,3.56-.1,5.29-.31,5.37-.64,10.72-2.3,15.9-3.91,9.19-2.85,17.87-5.55,26.37-2.82,1.92,.62,3.74,1.49,5.66,2.42,1.36,.66,2.76,1.33,4.2,1.91,8.98,3.6,19.85,3.44,30.84-.44,.83-.28,1.65-.59,2.47-.92,1.28-.52,2.53-1.11,3.74-1.73l74.81,52.07s.01,0,.01,.01l25.19,17.53,7.4,5.15c-.14,4.59-1.47,17.53-11.4,23.21Zm68.88-.97l-19.9,.26-35.87-24.96-5.81-4.05,7.53-6.75c1.42,1.07,2.89,2.08,4.4,3,.54,.33,1.56,.96,2.75,.96,.29,0,.59-.04,.89-.13,.94-.26,1.55-.88,2.04-1.38,.21-.21,.41-.41,.59-.54,.72-.51,1.76-.3,3.39,.1,.91,.22,1.85,.46,2.82,.5,1.71,.09,3.22-.45,4.68-.96,1.1-.39,2.15-.75,3.16-.8,.53-.03,1.09,.02,1.69,.07,.84,.08,1.71,.16,2.64,.03,.04,0,.09,0,.13-.01,2.35-.34,4.15-1.88,5.66-3.51l20.93,13.37c2.79,5.26,8.73,19.02-1.72,24.8Z"/>
      <path d="M370.6,111.32l.42,.81h78.15l.41-.33c.65-.53,16-12.91,15.64-22.17-.1-2.57-1.32-4.68-3.63-6.24-5.53-3.76-14.55-4.15-24.13-1.02-.01,0-.03,.01-.04,.01-1.07,.34-2.1,.73-3.09,1.14,.39-4.95,.06-10.71-2.81-14.27-1.59-1.98-3.79-3.11-6.52-3.33-11.97-1.03-26.76,15.65-31.82,25.37-1.65-.32-3.47-.62-5.38-.84-9.32-1.1-15.58,.19-18.6,3.83-1.63,1.97-2.25,4.54-1.85,7.69,.34,2.7,1.43,5.82,3.25,9.35Zm.91-15.12c3.62-4.37,14.41-3.34,22.1-1.78,.06,.02,.13,.03,.19,.04,2.34,.48,4.39,1.01,5.83,1.44,.8,.24,1.63-.21,1.87-1.01,.24-.79-.21-1.62-1-1.86-.13-.04-1.78-.53-4.26-1.1,4.74-8.56,16.81-21.76,26.34-22.97,6.85,1.82,5.64,14.7,5.2,18.04-2.93,2.01-4.99,4.24-5.77,6.42-.28,.79,.12,1.64,.91,1.92,.78,.28,1.63-.13,1.91-.91,1.14-3.19,6.7-6.97,13.52-9.2,2.58-.84,5.51-1.5,8.47-1.79,3.67,2.29,13.99,10.68-.48,25.69h-73.49c-1.43-2.89-2.28-5.4-2.55-7.49-.29-2.3,.11-4.12,1.21-5.44Z"/>
      <path d="M419.23,297.45c.34,0,.68-.11,.96-.34,12.73-10.61,5.14-27.78,5.06-27.95-.34-.75-1.23-1.09-1.98-.75-.76,.34-1.09,1.23-.75,1.99,.01,.04,1.75,3.93,2.04,8.9,.39,6.48-1.73,11.7-6.29,15.5-.64,.53-.73,1.48-.2,2.11,.3,.36,.73,.54,1.16,.54Z"/>
      <path d="M382.07,127.91c0-.83-.67-1.5-1.5-1.5h-39.97c-.83,0-1.5,.67-1.5,1.5s.67,1.5,1.5,1.5h39.97c.83,0,1.5-.67,1.5-1.5Z"/>
      <path d="M368.72,486.19c-.68-.47-1.62-.3-2.09,.38-8.73,12.56-31.99,9.92-32.22,9.89-.83-.09-1.57,.49-1.67,1.31-.1,.83,.48,1.57,1.31,1.67,.3,.04,2.59,.3,5.94,.3,8.06,0,22.2-1.53,29.11-11.46,.47-.68,.3-1.61-.38-2.09Z"/>
      <path d="M318.9,185.14c-.59,.58-.59,1.53,0,2.12l22.23,22.23c.29,.29,.68,.44,1.06,.44s.77-.15,1.06-.44c.59-.58,.59-1.53,0-2.12l-22.23-22.23c-.59-.59-1.54-.59-2.12,0Z"/>
      <path d="M316.9,66.99c.39,0,.77-.14,1.06-.44l22.24-22.23c.58-.59,.58-1.54,0-2.12-.59-.59-1.54-.59-2.12,0l-22.24,22.23c-.58,.59-.58,1.54,0,2.12,.3,.3,.68,.44,1.06,.44Z"/>
      <path d="M255.79,196.94c37.76,0,68.48-30.72,68.48-68.49s-30.72-68.48-68.48-68.48-68.49,30.72-68.49,68.48,30.72,68.49,68.49,68.49Zm0-133.97c36.1,0,65.48,29.37,65.48,65.48s-29.38,65.49-65.48,65.49-65.49-29.38-65.49-65.49,29.38-65.48,65.49-65.48Z"/>
      <path d="M255.91,215.43v39.97c0,.83,.67,1.5,1.5,1.5s1.5-.67,1.5-1.5v-39.97c0-.83-.68-1.5-1.5-1.5s-1.5,.67-1.5,1.5Z"/>
      <path d="M257.41,42.98c.82,0,1.5-.67,1.5-1.5V1.5c0-.82-.68-1.5-1.5-1.5s-1.5,.68-1.5,1.5V41.48c0,.83,.67,1.5,1.5,1.5Z"/>
      <path d="M193.61,66.55c.29,.3,.68,.44,1.06,.44s.77-.14,1.06-.44c.59-.58,.59-1.53,0-2.12l-22.23-22.23c-.59-.59-1.54-.59-2.12,0-.59,.58-.59,1.53,0,2.12l22.23,22.23Z"/>
      <path d="M171.67,212.22c.39,0,.77-.14,1.06-.44l22.24-22.23c.58-.58,.58-1.53,0-2.12-.59-.59-1.54-.59-2.13,0l-22.23,22.23c-.58,.59-.58,1.54,0,2.12,.29,.3,.68,.44,1.06,.44Z"/>
      <path d="M59.23,75.68l.3,.14,106.62,.66,.38-.97c2.92-7.54,2.85-13.3-.2-17.11-4.13-5.14-12.74-5.48-20.02-4.64v-.02c2.05-7.78,.51-16.15-4.16-21.88-3.8-4.65-11.3-9.76-25.42-7.7-22.03,3.22-36.08,17.87-41.61,24.81-.2-.05-.41-.09-.61-.13-15.06-3.38-24.85-1.79-28.31,4.61-1.57,2.91-1.87,5.92-.87,8.93,2.62,7.94,13.44,13.08,13.9,13.3Zm9.64-24.88c1.76,.28,3.46,.61,5,.95,.52,.12,1.02,.24,1.49,.35,9.38,2.25,17.35,5.54,20.35,6.85,.76,.34,1.64-.01,1.97-.77,.34-.76-.01-1.64-.77-1.97-1.78-.78-5.28-2.25-9.78-3.79,1.33-3.73,5.72-14.29,14.38-20.62,4.63-2.14,9.86-3.83,15.66-4.68,12.73-1.85,19.34,2.59,22.65,6.64,4.09,5.01,5.42,12.38,3.6,19.27-.18,.67-.39,1.34-.63,2.01-.62,1.73-1.44,3.35-2.43,4.81-.47,.68-.29,1.62,.4,2.08,.26,.18,.55,.26,.84,.26,.48,0,.95-.23,1.24-.66,.96-1.42,1.77-2.98,2.43-4.62,5.75-.79,15.03-1.23,18.72,3.37,2.22,2.77,2.25,7.2,.1,13.18l-99.38-.61c-12.45-12.6-.53-19.86,4.16-22.05Z"/>
      <path d="M126.68,126.41c-.83,0-1.5,.67-1.5,1.5s.67,1.5,1.5,1.5h39.97c.83,0,1.5-.67,1.5-1.5s-.67-1.5-1.5-1.5h-39.97Z"/>
      <path d="M99.17,476.45c-56.59,1.95-77.54-14.55-77.74-14.72-.65-.53-1.59-.43-2.11,.21-.53,.64-.44,1.58,.2,2.11,.82,.67,19.55,15.57,70.32,15.57,3.03,0,6.18-.06,9.44-.17,.83-.03,1.47-.72,1.45-1.55-.03-.83-.75-1.5-1.56-1.45Z"/>
      <path d="M82.89,279.3c.3-4.97,2.03-8.86,2.05-8.9,.34-.76,0-1.65-.75-1.99-.76-.34-1.64,0-1.99,.75-.07,.17-7.66,17.34,5.07,27.95,.28,.23,.62,.34,.96,.34,.43,0,.85-.18,1.15-.54,.53-.63,.44-1.58-.19-2.11-4.57-3.8-6.69-9.02-6.3-15.5Z"/>
    </g>
  </g>
</svg>