<?xml version="1.0" encoding="UTF-8"?>
<svg id="Layer_2" data-name="Layer 2" xmlns="http://www.w3.org/2000/svg" viewBox="0 0 74.06 51.6">
  <g id="katman_1" data-name="katman 1">
    <g>
      <path class="cls-1" d="M18.69,41.71L48.74,11.66l-3.78-.67c-1.78-.31-3.57-.55-5.33-.7-1.6-.14-3.18-.21-4.7-.21-1.78,0-3.68,.1-5.64,.29C10.26,12.26,0,20.36,0,27.02c0,5.72,6.56,11.08,17.55,14.36l1.14,.34Zm15.7-23.43c-.92-.46-1.32-1.44-.9-2.37,.38-.81,1.26-1.22,2.1-.94,1.04,.34,1.99,.8,2.85,1.34l-2.66,2.66c-.46-.24-.93-.47-1.39-.69ZM4,27.02c0-4.37,7.9-9.09,18.19-11.44-2.69,2.74-4.24,6.58-3.93,10.71,.2,2.8,1.23,5.33,2.81,7.4l-3.5,3.5c-8.16-2.63-13.56-6.66-13.56-10.17Z"/>
      <path class="cls-1" d="M57.21,12.58l8.64-8.64c.44-.45,.67-1.04,.67-1.63s-.23-1.19-.67-1.64c-.9-.9-2.37-.9-3.27,0l-12.29,12.29-1.42,1.42-2.05,2.06h-.01l-2.65,2.65-14.8,14.8-5.56,5.56-8.2,8.2c-.45,.45-.67,1.04-.67,1.64s.22,1.18,.67,1.63c.9,.9,2.37,.9,3.27,0l8.47-8.47,1.3,.26c4.02,.81,8.16,1.24,11.96,1.24,15.79,0,33.46-7.24,33.46-16.94,0-5.87-6.28-11.21-16.85-14.43Zm-16.61,27.37c-2.37,0-4.88-.18-7.41-.53l1.45-1.45c2.01,.89,4.27,1.32,6.62,1.14,7.66-.57,13.4-7.22,12.84-14.87-.12-1.63-.53-3.16-1.16-4.57l3.24-3.24c8.35,2.58,13.88,6.76,13.88,10.57,0,6.41-14.87,12.94-29.46,12.94Z"/>
    </g>
  </g>
</svg>