<svg width="20" height="20" viewBox="0 0 20 20" fill="none" xmlns="http://www.w3.org/2000/svg">
<path d="M12.4891 18H5.51089C2.47213 18 0 15.5279 0 12.4891V5.51089C0 2.47213 2.47213 0 5.51089 0H12.4891C15.5279 0 18 2.47213 18 5.51089V12.4891C18 15.5279 15.5279 18 12.4891 18ZM5.51089 1.34771C3.21554 1.34771 1.34771 3.21509 1.34771 5.51089V12.4891C1.34771 14.7845 3.21509 16.6523 5.51089 16.6523H12.4891C14.7849 16.6523 16.6523 14.7849 16.6523 12.4891V5.51089C16.6523 3.21554 14.7849 1.34771 12.4891 1.34771H5.51089Z" fill="#C6CEDD"/>
<path d="M9.00227 13.5534C6.4916 13.5534 4.44922 11.5105 4.44922 9.00032C4.44922 6.49009 6.4916 4.44727 9.00227 4.44727C11.5129 4.44727 13.5553 6.49009 13.5553 9.00032C13.5553 11.5105 11.5125 13.5534 9.00227 13.5534ZM9.00227 5.82687C7.25273 5.82687 5.82927 7.25034 5.82927 8.99988C5.82927 10.7494 7.25273 12.1729 9.00227 12.1729C10.7518 12.1729 12.1753 10.7494 12.1753 8.99988C12.1753 7.25034 10.7518 5.82687 9.00227 5.82687Z" fill="#C6CEDD"/>
<path d="M15.2213 4.14052C15.3257 3.49414 14.8864 2.88547 14.2401 2.78101C13.5937 2.67655 12.985 3.11587 12.8805 3.76224C12.7761 4.40862 13.2154 5.0173 13.8618 5.12176C14.5082 5.22622 15.1168 4.7869 15.2213 4.14052Z" fill="#C6CEDD"/>
</svg>
