<svg xmlns="http://www.w3.org/2000/svg" width="15.534" height="17.782" viewBox="0 0 15.534 17.782">
	<g id="Group_2823" data-name="Group 2823" transform="translate(-28.088 -335)">
		<path id="Path_6020" data-name="Path 6020" d="M7.955,29.149c-.252-.021-.5-.044-.756-.062A24.394,24.394,0,0,1,2.167,28.2C2.03,28.156,2,28.093,2,27.96q.006-3.654,0-7.309a.2.2,0,0,1,.172-.232,24.977,24.977,0,0,1,4.577-.856,22.344,22.344,0,0,1,4.81.08,24.67,24.67,0,0,1,3.8.775.2.2,0,0,1,.171.233q-.007,3.654,0,7.309a.208.208,0,0,1-.183.241,24.132,24.132,0,0,1-4.578.851c-.4.034-.8.064-1.194.1Z" transform="translate(27.088 322.633)" fill="none" stroke="#a4a4a6" stroke-miterlimit="10" stroke-width="2"/>
		<path id="Path_6021" data-name="Path 6021" d="M16.56,7.094c0,.044-.007.088-.007.128-.773-.135-1.536-.27-2.32-.405V6.609c.274.051.551.1.825.146a.66.66,0,0,0,.007-.091c0-.441.007-.887-.007-1.328a3.815,3.815,0,0,0-.088-.759A3.907,3.907,0,0,0,9.825,1.7,3.752,3.752,0,0,0,7.209,5,15.24,15.24,0,0,0,7.18,6.733c0,.011.007.018.007.022.31-.054.62-.105.93-.161v.223c-.784.139-1.543.27-2.309.405a.056.056,0,0,1-.015-.033,23.189,23.189,0,0,1,.04-2.364A5.127,5.127,0,0,1,9.409.316a5.333,5.333,0,0,1,7.023,3.929,5.505,5.505,0,0,1,.12,1.04c.018.6.007,1.208.007,1.809" transform="translate(24.686 335)" fill="#a4a4a6"/>
		<path id="Path_6022" data-name="Path 6022" d="M18.183,29.275v1.652h-1.01v-.182c0-.434-.006-.868,0-1.3a.221.221,0,0,0-.162-.244,1.644,1.644,0,1,1,1.372-.013c-.061.029-.124.054-.2.089m.133-1.575a.636.636,0,1,0-.638.633.644.644,0,0,0,.638-.633" transform="translate(18.178 318.453)" fill="#a4a4a6"/>
	</g>
</svg>
