<svg width="61" height="56" viewBox="0 0 61 56" fill="none" xmlns="http://www.w3.org/2000/svg">
<path d="M10.0462 1.59412H38.6436C43.1374 1.59412 46.8142 5.28879 46.8142 9.8045V26.6358C46.8142 31.1515 43.1374 34.8462 38.6436 34.8462H22.5065L11.2718 44.6986V34.8462H7.59497C4.32669 34.8462 1.87549 32.3831 1.87549 29.3042V9.8045C1.87549 5.28879 5.5523 1.59412 10.0462 1.59412Z" stroke="white" stroke-width="3" stroke-linecap="round" stroke-linejoin="round"/>
<path d="M20.2178 39.0568C20.2178 41.3518 22.0424 43.2295 24.2724 43.4381L38.2609 43.8554L49.4111 53.8698V43.8554H53.0602C56.1012 43.8554 58.7367 41.3518 58.7367 38.0136V18.1935C58.7367 13.6035 55.0875 9.84814 50.6275 9.84814H46.9403" stroke="white" stroke-width="3" stroke-linecap="round" stroke-linejoin="round"/>
<path d="M15.3626 16.0837H17.9172C18.98 16.0837 19.8416 16.9453 19.8416 18.0081C19.8416 19.071 18.98 19.9326 17.9172 19.9326H15.3626V23.0711C15.3626 24.2137 14.4364 25.1399 13.2938 25.1399C12.1513 25.1399 11.2251 24.2137 11.2251 23.0711V19.9326H8.65736C7.59452 19.9326 6.73291 19.071 6.73291 18.0081C6.73291 16.9453 7.59452 16.0837 8.65736 16.0837H11.2251V13.0916C11.2251 11.949 12.1513 11.0228 13.2938 11.0228C14.4364 11.0228 15.3626 11.949 15.3626 13.0916V16.0837Z" fill="white"/>
<circle cx="34.8252" cy="12.4646" r="1.79055" fill="white"/>
<circle cx="34.5864" cy="24.1575" r="1.79055" fill="white"/>
<circle cx="39.4805" cy="18.5525" r="1.79055" fill="white"/>
<circle cx="30.1699" cy="18.5525" r="1.79055" fill="white"/>
</svg>
