<?xml version="1.0" encoding="UTF-8"?>
<svg id="Layer_2" data-name="Layer 2" xmlns="http://www.w3.org/2000/svg" viewBox="0 0 68.38 33.87">
  <g id="katman_1" data-name="katman 1">
    <path class="cls-1" d="M68.38,16.94C68.38,7.24,50.71,0,34.92,0c-7.61,0-16.15,1.69-22.83,4.53C4.29,7.84,0,12.25,0,16.94s4.29,9.09,12.08,12.4c6.69,2.84,15.22,4.53,22.83,4.53,15.79,0,33.46-7.24,33.46-16.93Zm-23.58-2.65c-.9,.41-1.91,.06-2.33-.86-.65-1.45-1.47-2.79-2.79-3.69-.88-.61-1.88-1.05-2.83-1.53-.92-.46-1.32-1.44-.91-2.36,.39-.81,1.26-1.22,2.11-.94,3.62,1.2,6.18,3.57,7.64,7.1,.38,.92-.02,1.89-.9,2.29ZM4,16.94c0-4.94,9.81-10.1,21.31-12.09-3.1,2.77-4.92,6.89-4.59,11.36,.56,7.66,7.22,13.4,14.86,12.84,7.66-.57,13.4-7.22,12.84-14.88-.28-3.78-2.06-7.1-4.71-9.42,11.22,1.89,20.67,7.07,20.67,12.18,0,6.41-14.87,12.93-29.46,12.93S4,23.22,4,16.94Z"/>
  </g>
</svg>