<svg width="27" height="28" viewBox="0 0 27 28" fill="none" xmlns="http://www.w3.org/2000/svg">
<path d="M25.7295 25.1121L25.75 25.1116V26.3748V27.2883C25.75 27.4053 25.6587 27.4893 25.557 27.4893H0.7035C0.596579 27.4893 0.5 27.4 0.5 27.2777V25.8702V25.868V25.8657V25.8634V25.8611V25.8589V25.8566V25.8543V25.8521V25.8498V25.8475V25.8452V25.843V25.8407V25.8384V25.8362V25.8339V25.8316V25.8294V25.8271V25.8248V25.8225V25.8203V25.818V25.8157V25.8135V25.8112V25.8089V25.8067V25.8044V25.8021V25.7999V25.7976V25.7953V25.7931V25.7908V25.7885V25.7863V25.784V25.7817V25.7795V25.7772V25.7749V25.7727V25.7704V25.7681V25.7659V25.7636V25.7613V25.7591V25.7568V25.7545V25.7523V25.75V25.7477V25.7455V25.7432V25.7409V25.7387V25.7364V25.7341V25.7319V25.7296V25.7273V25.7251V25.7228V25.7205V25.7183V25.716V25.7138V25.7115V25.7092V25.707V25.7047V25.7024V25.7002V25.6979V25.6956V25.6934V25.6911V25.6889V25.6866V25.6843V25.6821V25.6798V25.6775V25.6753V25.673V25.6708V25.6685V25.6662V25.664V25.6617V25.6594V25.6572V25.6549V25.6527V25.6504V25.6481V25.6459V25.6436V25.6414V25.6391V25.6368V25.6346V25.6323V25.6301V25.6278V25.6255V25.6233V25.621V25.6188V25.6165V25.6142V25.612V25.6097V25.6075V25.6052V25.6029V25.6007V25.5984V25.5962V25.5939V25.5917V25.5894V25.5871V25.5849V25.5826V25.5804V25.5781V25.5758V25.5736V25.5713V25.5691V25.5668V25.5646V25.5623V25.56V25.5578V25.5555V25.5533V25.551V25.5488V25.5465V25.5442V25.542V25.5397V25.5375V25.5352V25.533V25.5307V25.5284V25.5262V25.5239V25.5217V25.5194V25.5172V25.5149V25.5127V25.5104V25.5081V25.5059V25.5036V25.5014V25.4991V25.4969V25.4946V25.4924V25.4901V25.4878V25.4856V25.4833V25.4811V25.4788V25.4766V25.4743V25.4721V25.4698V25.4676V25.4653V25.4631V25.4608V25.4585V25.4563V25.454V25.4518V25.4495V25.4473V25.445V25.4428V25.4405V25.4383V25.436V25.4338V25.4315V25.4293V25.427V25.4248V25.4225V25.4202V25.418V25.4157V25.4135V25.4112V25.409V25.4067V25.4045V25.4022V25.4V25.3977V25.3955V25.3932V25.391V25.3887V25.3865V25.3842V25.382V25.3797V25.3775V25.3752V25.373V25.3707V25.3685V25.3662V25.364V25.3617V25.3595V25.3572V25.355V25.3527V25.3505V25.3482V25.346V25.3437V25.3415V25.3392V25.337V25.3347V25.3325V25.3302V25.328V25.3257V25.3235V25.3212V25.319V25.3167V25.3145V25.3122V25.31V25.3077V25.3055V25.3032V25.301V25.2987V25.2965V25.2942V25.292V25.2897V25.2875V25.2852V25.283V25.2807V25.2785V25.2762V25.274V25.2717V25.2695V25.2673V25.265V25.2628V25.2605V25.2583V25.256V25.2538V25.2515V25.2493V25.247V25.2448V25.2425V25.2403V25.238V25.2358V25.2335V25.2313V25.2291V25.2268V25.2246V25.2223V25.2201V25.2178V25.2156V25.2133V25.2111V25.2088V25.2066V25.2043V25.2021V25.1998V25.1976V25.1954V25.1931V25.1909V25.1886V25.1864V25.1841V25.1819V25.1796V25.1774V25.1751V25.1729V25.1707V25.1684V25.1662V25.1639V25.1617V25.1594V25.1572V25.1549V25.1527V25.1504V25.1482V25.146V25.1437V25.1415V25.1392V25.137V25.1347V25.1325V25.1302V25.128V25.1258V25.1235V25.1213V25.119V25.1168V25.1145V25.1123V25.11V25.1078V25.1056V25.1033V25.1011V25.0988V25.0966V25.0943V25.0921V25.0898V25.0876V25.0854V25.0831V25.0809V25.0786V25.0764V25.0741V25.0719V25.0697V25.0674V25.0652V25.0629V25.0607V25.0584V25.0562V25.0539V25.0517V25.0495V25.0472V25.045V25.0427V25.0405V25.0382V25.036V25.0338V25.0315V25.0293V25.027V25.0248V25.0225V25.0203V25.0181V25.0158V25.0136V25.0113V25.0091V25.0068V25.0046V25.0024V25.0001V24.9979V24.9956V24.9934V24.9911V24.9889V24.9867V24.9844V24.9822V24.9799V24.9777V24.9755V24.9732V24.971V24.9687V24.9665V24.9642V24.962V24.9598V24.9575V24.9553V24.953V24.9508V24.9485V24.9463V24.9441V24.9418V24.9396V24.9373V24.9351V24.9329V24.9306V24.9284V24.9261V24.9239V24.9216V24.9194V24.9172V24.9149V24.9127V24.9104V24.9082V24.906V24.9037V24.9015V24.8992V24.897V24.8948V24.8925V24.8903V24.888V24.8858V24.8835V24.8813V24.8791V24.8768V24.8746V24.8723V24.8701V24.8679V24.8656V24.8634V24.8611V24.8589V24.8567V24.8544V24.8522V24.8499V24.8477V24.8454V24.8432V24.841V24.8387V24.8365V24.8342V24.832V24.8298V24.8275V24.8253V24.823V24.8208V24.8186V24.8163V24.8141V24.8118V24.8096V24.8074V24.8051V24.8029V24.8006V24.7984V24.7961V24.7939V24.7917V24.7894V24.7872V24.7849V24.7827V24.7805V24.7782V24.776V24.7737V24.7715V24.7693V24.767V24.7648V24.7625V24.7603V24.7581V24.7577C0.527666 24.585 0.552801 24.4166 0.577471 24.2513C0.642766 23.8137 0.704797 23.3979 0.801836 22.9834L0.801978 22.9828C1.45466 20.1792 3.0176 17.9878 5.31154 16.2871L5.31166 16.287C6.52251 15.3887 7.85368 14.7356 9.30288 14.3217C9.38295 14.2991 9.47418 14.2657 9.55634 14.2356C9.59025 14.2232 9.62261 14.2113 9.652 14.201L10.5994 13.8692L9.76384 13.3129C7.43155 11.7601 6.21177 9.6876 6.36351 6.89968L6.36355 6.89894C6.46622 4.9601 7.29633 3.34928 8.77177 2.09051L8.77197 2.09034C11.5282 -0.263632 15.7358 -0.0347454 18.2976 2.89938L18.2978 2.89956C19.3467 4.09969 20.0203 6.01116 19.865 7.97429C19.7113 9.91662 18.7472 11.9045 16.5189 13.3L15.6532 13.8422L16.6123 14.1933C16.8175 14.2684 17.0129 14.3361 17.2021 14.4016C17.5533 14.5232 17.8834 14.6374 18.2157 14.7786C21.7368 16.2826 24.1759 18.7726 25.3204 22.4846C25.577 23.3287 25.6887 24.208 25.7295 25.1121Z" stroke="#C6CEDD"/>
</svg>
